<?xml version="1.0" encoding="iso-8859-1"?>
<!-- Generator: Adobe Illustrator 19.0.0, SVG Export Plug-In . SVG Version: 6.00 Build 0)  -->
<svg version="1.1" id="Layer_1" xmlns="http://www.w3.org/2000/svg" xmlns:xlink="http://www.w3.org/1999/xlink" x="0px" y="0px"
	 viewBox="0 0 196.119 196.119" style="enable-background:new 0 0 196.119 196.119;" xml:space="preserve">
	<path d="M131.935,51.012c0-17.697-14.396-32.092-32.092-32.092c-5.62,0-11.066,1.448-15.896,4.21
		c-8.974-5.77-21.343-5.429-30.01,0.804c-5.909-5.488-13.696-8.58-21.844-8.58C14.396,15.354,0,29.749,0,47.446
		c0,17.697,14.396,32.092,32.092,32.092c0.178,0,0.359,0,0.536-0.004c2.493,12.251,13.386,21.398,26.207,21.398
		c12.933,0,23.749-9.228,26.214-21.444c4.544,2.354,9.628,3.615,14.792,3.615C117.539,83.104,131.935,68.709,131.935,51.012z
		 M99.843,75.972c-5.746,0-11.147-1.898-15.614-5.485c-1.083-0.874-2.58-1.027-3.827-0.411c-1.247,0.623-2.016,1.919-1.968,3.312
		l0.014,0.801c0,10.812-8.8,19.612-19.612,19.612c-10.293,0-18.888-8.033-19.567-18.292c-0.066-0.978-0.533-1.891-1.292-2.514
		c-0.641-0.529-1.445-0.815-2.267-0.815c-0.15,0-0.3,0.01-0.446,0.028c-1.038,0.132-2.1,0.199-3.172,0.199
		c-13.762,0-24.961-11.199-24.961-24.961c0-13.762,11.199-24.961,24.961-24.961c7.243,0,14.124,3.144,18.874,8.625
		c0.637,0.731,1.546,1.177,2.514,1.226c0.982,0.077,1.919-0.3,2.626-0.965c3.646-3.43,8.413-5.321,13.427-5.321
		c4.429,0,8.608,1.442,12.083,4.165c1.219,0.958,2.921,1.01,4.207,0.143c4.144-2.817,8.991-4.307,14.019-4.307
		c13.762,0,24.961,11.199,24.961,24.961C124.803,64.774,113.605,75.972,99.843,75.972z"/>
	<path d="M167.593,61.709c-10.711,0-20.273,5.829-25.184,15.106c-2.253-0.561-4.562-0.843-6.909-0.843
		c-15.729,0-28.526,12.797-28.526,28.526s12.797,28.526,28.526,28.526c10.708,0,20.267-5.833,25.184-15.106
		c2.25,0.561,4.562,0.843,6.909,0.843c15.729,0,28.526-12.797,28.526-28.526S183.322,61.709,167.593,61.709z M167.593,111.631
		c-2.605,0-5.157-0.463-7.577-1.379c-1.821-0.693-3.869,0.219-4.583,2.037c-3.231,8.263-11.056,13.605-19.932,13.605
		c-11.798,0-21.395-9.597-21.395-21.395c0-11.798,9.597-21.395,21.395-21.395c2.605,0,5.157,0.463,7.577,1.379
		c1.828,0.693,3.872-0.216,4.583-2.037c3.231-8.263,11.053-13.605,19.932-13.605c11.798,0,21.395,9.597,21.395,21.395
		C188.988,102.034,179.391,111.631,167.593,111.631z"/>
	<path d="M83.908,127.52c-6.063-3.499-13.083-4.628-19.821-3.28c-0.989-5.652-4.429-10.722-9.517-13.657
		c-4.537-2.619-9.823-3.319-14.883-1.96c-5.06,1.355-9.287,4.6-11.909,9.137c-4.036,6.999-3.367,15.461,1.309,21.618
		c-1.804,1.483-3.333,3.287-4.524,5.349c-2.619,4.537-3.315,9.82-1.957,14.883c1.355,5.06,4.6,9.287,9.137,11.906
		c5.516,3.19,12.097,3.479,17.777,0.94c1.745,1.731,3.705,3.231,5.861,4.475c4.395,2.538,9.273,3.834,14.214,3.834
		c2.479,0,4.973-0.327,7.431-0.986c7.362-1.971,13.511-6.693,17.321-13.292c3.809-6.599,4.823-14.284,2.852-21.646
		C95.225,137.483,90.507,131.329,83.908,127.52z M88.17,162.92c-2.855,4.948-7.469,8.49-12.989,9.97
		c-5.516,1.48-11.283,0.721-16.234-2.138c-2.274-1.313-4.255-2.998-5.895-5.011c-0.7-0.86-1.727-1.313-2.768-1.313
		c-0.665,0-1.337,0.188-1.936,0.571c-3.956,2.566-8.96,2.699-13.037,0.338c-2.887-1.665-4.952-4.356-5.815-7.577
		c-0.864-3.217-0.421-6.581,1.247-9.468c1.274-2.208,3.158-3.949,5.45-5.035c1.107-0.526,1.866-1.581,2.013-2.8
		c0.143-1.219-0.348-2.424-1.299-3.197c-4.799-3.876-6.038-10.579-2.949-15.935c1.668-2.887,4.36-4.952,7.577-5.815
		c3.225-0.857,6.589-0.414,9.472,1.25c4.161,2.399,6.595,7.048,6.198,11.843c-0.097,1.219,0.432,2.406,1.41,3.141
		c0.986,0.738,2.27,0.919,3.412,0.484c6.045-2.295,12.727-1.762,18.316,1.469c4.948,2.855,8.49,7.469,9.966,12.989
		C91.788,152.206,91.029,157.972,88.17,162.92z"/>
</svg>
