<?xml version="1.0" encoding="iso-8859-1"?>
<!-- Generator: Adobe Illustrator 19.0.0, SVG Export Plug-In . SVG Version: 6.00 Build 0)  -->
<svg version="1.1" id="Layer_1" xmlns="http://www.w3.org/2000/svg" xmlns:xlink="http://www.w3.org/1999/xlink" x="0px" y="0px"
	 viewBox="0 0 192.561 192.561" style="enable-background:new 0 0 192.561 192.561;" xml:space="preserve">
	<path d="M148.116,128.536h-24.633c-1.243,0-2.399,0.649-3.047,1.713c-0.648,1.062-0.693,2.387-0.118,3.493l23.916,46.188
		c0.62,1.201,1.856,1.926,3.165,1.926c0.272,0,0.543-0.031,0.818-0.094c1.588-0.374,2.723-1.783,2.747-3.416l0.717-46.188
		c0.014-0.956-0.355-1.877-1.024-2.558C149.986,128.919,149.071,128.536,148.116,128.536z M144.053,164.074l-14.709-28.406h15.151
		L144.053,164.074z"/>
	<path d="M69.665,128.536h-24.63c-0.954,0-1.87,0.383-2.542,1.064c-0.669,0.681-1.038,1.602-1.024,2.558l0.714,46.188
		c0.024,1.633,1.16,3.04,2.747,3.416c0.275,0.063,0.547,0.094,0.818,0.094c1.309,0,2.546-0.724,3.165-1.926l23.916-46.188
		c0.574-1.106,0.529-2.43-0.118-3.493C72.065,129.186,70.908,128.536,69.665,128.536z M49.096,164.072l-0.439-28.405h15.148
		L49.096,164.072z"/>
	<path d="M108.76,128.369H83.8c-1.079,0-2.1,0.489-2.779,1.33c-0.676,0.841-0.937,1.943-0.704,2.998l12.48,57.061
		c0.355,1.637,1.807,2.803,3.482,2.803c1.675,0,3.127-1.166,3.482-2.803l12.48-57.061c0.233-1.055-0.028-2.157-0.704-2.998
		C110.86,128.858,109.84,128.369,108.76,128.369z M96.28,172.308l-8.051-36.807h16.102L96.28,172.308z"/>
	<path d="M151.421,46.392C149.541,20.505,127.126,0,99.846,0C78.204,0,59.131,12.797,51.523,32.12
		c-0.529-0.019-1.062-0.028-1.598-0.028c-24.578,0-44.573,19.995-44.573,44.573s19.995,44.573,44.573,44.573
		c0.467,0,0.933-0.007,1.396-0.021c0.129,0.014,0.258,0.021,0.387,0.021h99.843c0.258,0,0.512-0.03,0.759-0.085
		c19.619-1.315,34.899-17.612,34.899-37.356C187.208,63.706,171.301,47.261,151.421,46.392z M151.351,114.066
		c-0.125,0.005-0.251,0.019-0.376,0.04H52.24c-0.219-0.035-0.449-0.042-0.679-0.035c-0.543,0.025-1.087,0.035-1.637,0.035
		c-20.646,0-37.441-16.796-37.441-37.441c0-20.645,16.795-37.441,37.441-37.441c1.243,0,2.476,0.061,3.691,0.179
		c1.643,0.171,3.211-0.843,3.733-2.43C63.244,19.124,80.324,7.132,99.846,7.132c24.578,0,44.573,19.196,44.573,42.835
		c0,0.977,0.4,1.91,1.107,2.584c0.71,0.674,1.682,1.048,2.636,0.977c0.533-0.026,1.065-0.04,1.605-0.04
		c16.711,0,30.309,13.596,30.309,30.309C180.076,99.94,167.46,113.235,151.351,114.066z"/>
</svg>
