<?xml version="1.0" encoding="iso-8859-1"?>
<!-- Generator: Adobe Illustrator 19.0.0, SVG Export Plug-In . SVG Version: 6.00 Build 0)  -->
<svg version="1.1" id="Layer_1" xmlns="http://www.w3.org/2000/svg" xmlns:xlink="http://www.w3.org/1999/xlink" x="0px" y="0px"
	 viewBox="0 0 188.988 188.988" style="enable-background:new 0 0 188.988 188.988;" xml:space="preserve">
	<path d="M71.316,49.921c0-19.663-15.997-35.658-35.658-35.658S0,30.259,0,49.921c0,19.662,15.997,35.658,35.658,35.658
		S71.316,69.584,71.316,49.921z M7.132,49.921c0-15.729,12.797-28.526,28.526-28.526s28.526,12.797,28.526,28.526
		S51.387,78.448,35.658,78.448S7.132,65.65,7.132,49.921z"/>
	<path d="M65.967,85.579c0,1.969,1.595,3.566,3.566,3.566h69.533c1.971,0,3.566-1.597,3.566-3.566s-1.595-3.566-3.566-3.566
		H69.533C67.562,82.014,65.967,83.61,65.967,85.579z"/>
	<path d="M137.378,103.408c1.971,0,3.566-1.597,3.566-3.566s-1.595-3.566-3.566-3.566H42.79c-1.971,0-3.566,1.597-3.566,3.566
		s1.595,3.566,3.566,3.566H137.378z"/>
	<path d="M21.395,114.106c0,1.969,1.595,3.566,3.566,3.566h139.067c1.971,0,3.566-1.597,3.566-3.566s-1.595-3.566-3.566-3.566
		H24.961C22.99,110.54,21.395,112.137,21.395,114.106z"/>
	<path d="M14.263,128.369c0,1.969,1.595,3.566,3.566,3.566h164.027c1.971,0,3.566-1.597,3.566-3.566s-1.595-3.566-3.566-3.566
		H17.829C15.858,124.803,14.263,126.4,14.263,128.369z"/>
	<path d="M185.422,139.067H17.829c-1.971,0-3.566,1.597-3.566,3.566s1.595,3.566,3.566,3.566h167.593
		c1.971,0,3.566-1.597,3.566-3.566S187.393,139.067,185.422,139.067z"/>
	<path d="M181.856,153.33H21.395c-1.971,0-3.566,1.597-3.566,3.566s1.595,3.566,3.566,3.566h160.461
		c1.971,0,3.566-1.597,3.566-3.566S183.827,153.33,181.856,153.33z"/>
	<path d="M171.159,167.593H39.224c-1.971,0-3.566,1.597-3.566,3.566s1.595,3.566,3.566,3.566h131.935
		c1.971,0,3.566-1.597,3.566-3.566S173.13,167.593,171.159,167.593z"/>
	<path d="M85.579,74.882h39.224c1.971,0,3.566-1.597,3.566-3.566s-1.595-3.566-3.566-3.566H85.579
		c-1.971,0-3.566,1.597-3.566,3.566S83.609,74.882,85.579,74.882z"/>
</svg>
