<?xml version="1.0" encoding="iso-8859-1"?>
<!-- Generator: Adobe Illustrator 19.0.0, SVG Export Plug-In . SVG Version: 6.00 Build 0)  -->
<svg version="1.1" id="Layer_1" xmlns="http://www.w3.org/2000/svg" xmlns:xlink="http://www.w3.org/1999/xlink" x="0px" y="0px"
	 viewBox="0 0 181.857 181.857" style="enable-background:new 0 0 181.857 181.857;" xml:space="preserve">
			<path d="M146.071,50.62c-1.882-25.887-24.296-46.392-51.577-46.392c-21.644,0-40.714,12.797-48.321,32.12
				c-0.531-0.019-1.064-0.028-1.6-0.028C19.995,36.32,0,56.315,0,80.892c0,24.577,19.995,44.573,44.573,44.573
				c0.465,0,0.928-0.007,1.391-0.021c0.129,0.014,0.26,0.021,0.392,0.021h99.843c0.258,0,0.512-0.028,0.757-0.083
				c19.619-1.313,34.901-17.61,34.901-37.358C181.856,67.933,165.951,51.488,146.071,50.62z M146.003,118.292
				c-0.127,0.007-0.254,0.021-0.378,0.042H46.888c-0.219-0.031-0.446-0.056-0.669-0.035c-0.545,0.021-1.095,0.035-1.647,0.035
				c-20.645,0-37.441-16.795-37.441-37.441c0-20.645,16.796-37.441,37.441-37.441c1.245,0,2.478,0.061,3.691,0.179
				c1.637,0.169,3.209-0.844,3.735-2.43C57.893,23.353,74.97,11.36,94.493,11.36c24.578,0,44.573,19.196,44.573,42.835
				c0,0.977,0.4,1.91,1.109,2.584c0.707,0.672,1.642,1.041,2.636,0.977c0.531-0.026,1.064-0.04,1.604-0.04
				c16.713,0,30.309,13.596,30.309,30.309C174.725,104.167,162.108,117.466,146.003,118.292z"/>
			<path d="M67.75,133.387c-1.969,0-3.566,1.595-3.566,3.566v37.11c0,1.971,1.597,3.566,3.566,3.566s3.566-1.595,3.566-3.566v-37.11
				C71.316,134.982,69.719,133.387,67.75,133.387z"/>
			<path d="M89.145,133.387c-1.969,0-3.566,1.595-3.566,3.566v37.11c0,1.971,1.597,3.566,3.566,3.566s3.566-1.595,3.566-3.566
				v-37.11C92.711,134.982,91.114,133.387,89.145,133.387z"/>
			<path d="M110.54,133.387c-1.969,0-3.566,1.595-3.566,3.566v37.11c0,1.971,1.597,3.566,3.566,3.566
				c1.969,0,3.566-1.595,3.566-3.566v-37.11C114.106,134.982,112.509,133.387,110.54,133.387z"/>
</svg>
