<?xml version="1.0" encoding="iso-8859-1"?>
<!-- Generator: Adobe Illustrator 19.0.0, SVG Export Plug-In . SVG Version: 6.00 Build 0)  -->
<svg version="1.1" id="Layer_1" xmlns="http://www.w3.org/2000/svg" xmlns:xlink="http://www.w3.org/1999/xlink" x="0px" y="0px"
	 viewBox="0 0 181.857 181.857" style="enable-background:new 0 0 181.857 181.857;" xml:space="preserve">
	<path d="M146.069,48.175c-1.881-25.887-24.296-46.392-51.576-46.392c-21.642,0-40.714,12.797-48.323,32.12
		c-0.529-0.019-1.062-0.028-1.598-0.028C19.995,33.876,0,53.871,0,78.449s19.995,44.573,44.573,44.573
		c0.467,0,0.93-0.007,1.389-0.021c0.129,0.014,0.261,0.021,0.394,0.021h99.843c0.258,0,0.512-0.028,0.759-0.083
		c19.619-1.313,34.899-17.61,34.899-37.358C181.856,65.49,165.95,49.045,146.069,48.175z M146,115.847
		c-0.126,0.007-0.251,0.021-0.376,0.042H46.888c-0.216-0.031-0.446-0.056-0.669-0.035c-0.547,0.021-1.093,0.035-1.647,0.035
		c-20.646,0-37.441-16.795-37.441-37.441c0-20.645,16.795-37.441,37.441-37.441c1.243,0,2.476,0.061,3.691,0.179
		c1.64,0.169,3.211-0.843,3.733-2.43C57.892,20.907,74.973,8.915,94.494,8.915c24.578,0,44.573,19.196,44.573,42.835
		c0,0.977,0.4,1.91,1.107,2.584c0.71,0.674,1.675,1.047,2.636,0.977c0.533-0.026,1.065-0.04,1.605-0.04
		c16.711,0,30.309,13.596,30.309,30.309C174.725,101.727,162.108,115.022,146,115.847z"/>
	<path d="M40.053,134.999c-2.521,3.019-15.092,18.518-15.092,27.245c0,9.83,7.999,17.829,17.829,17.829
		c9.83,0,17.829-7.999,17.829-17.829c0-8.727-12.571-24.226-15.092-27.245C44.169,133.378,41.411,133.378,40.053,134.999z
		 M42.79,172.943c-5.899,0-10.697-4.799-10.697-10.697c0-3.827,5.596-12.585,10.697-19.246
		c5.102,6.658,10.697,15.412,10.697,19.246C53.487,168.144,48.689,172.943,42.79,172.943z"/>
	<path d="M86.408,134.999c-2.521,3.019-15.092,18.518-15.092,27.245c0,9.83,7.999,17.829,17.829,17.829
		c9.83,0,17.829-7.999,17.829-17.829c0-8.727-12.571-24.226-15.092-27.245C90.524,133.378,87.766,133.378,86.408,134.999z
		 M89.145,172.943c-5.899,0-10.697-4.799-10.697-10.697c0-3.827,5.596-12.585,10.697-19.246
		c5.102,6.658,10.697,15.412,10.697,19.246C99.843,168.144,95.044,172.943,89.145,172.943z"/>
	<path d="M132.764,134.999c-2.521,3.019-15.092,18.518-15.092,27.245c0,9.83,7.999,17.829,17.829,17.829
		c9.83,0,17.829-7.999,17.829-17.829c0-8.727-12.571-24.226-15.092-27.245C136.88,133.378,134.122,133.378,132.764,134.999z
		 M135.501,172.943c-5.899,0-10.697-4.799-10.697-10.697c0-3.827,5.596-12.585,10.697-19.246
		c5.102,6.658,10.697,15.412,10.697,19.246C146.198,168.144,141.4,172.943,135.501,172.943z"/>
</svg>
